<svg width="18" height="22" viewBox="0 0 18 22" fill="none" xmlns="http://www.w3.org/2000/svg">
<path d="M3.93698 21.3015H13.8456C15.7694 21.3015 17.2994 19.6326 17.2994 17.6245V7.52952C17.2994 7.05417 16.9325 6.63077 16.4402 6.63077H13.3852V6.03264C13.3852 3.41076 11.3882 1.24199 8.89131 1.24199C6.39443 1.24199 4.39746 3.41076 4.39746 6.03264V6.63077H1.34238C0.850157 6.63077 0.483203 7.05417 0.483203 7.52952V17.6245C0.483203 19.6326 2.01325 21.3015 3.93698 21.3015ZM6.11582 6.03264C6.11582 4.36146 7.37888 3.0395 8.89131 3.0395C10.4037 3.0395 11.6668 4.36146 11.6668 6.03264V6.63077H6.11582V6.03264ZM2.20156 8.42827H4.39746V9.62515C4.39746 10.1005 4.76442 10.5239 5.25664 10.5239C5.74887 10.5239 6.11582 10.1005 6.11582 9.62515V8.42827H11.6668V9.62515C11.6668 10.1005 12.0338 10.5239 12.526 10.5239C13.0182 10.5239 13.3852 10.1005 13.3852 9.62515V8.42827H15.5811V17.6245C15.5811 18.679 14.7821 19.5039 13.8456 19.5039H3.93698C3.0005 19.5039 2.20156 18.679 2.20156 17.6245V8.42827Z" fill="#354B9C" stroke="#354B9C" stroke-width="0.6"/>
</svg>
