<svg width="29" height="28" viewBox="0 0 29 28" fill="none" xmlns="http://www.w3.org/2000/svg">
<g clip-path="url(#clip0_846_8905)">
<path d="M9.97442 18.1018H9.9757C9.97677 18.1018 9.97784 18.1016 9.97891 18.1016H24.8515C25.2177 18.1016 25.5396 17.8587 25.6402 17.5066L28.9215 6.02225C28.9922 5.77466 28.9426 5.50848 28.7878 5.30298C28.6327 5.09747 28.3902 4.97656 28.1328 4.97656H8.08258L7.49618 2.33768C7.41265 1.96234 7.07983 1.69531 6.69531 1.69531H1.77344C1.32034 1.69531 0.953125 2.06253 0.953125 2.51562C0.953125 2.96872 1.32034 3.33594 1.77344 3.33594H6.03735C6.14117 3.80356 8.8435 15.9643 8.99902 16.6639C8.12722 17.0428 7.51562 17.9121 7.51562 18.9219C7.51562 20.2788 8.61962 21.3828 9.97656 21.3828H24.8515C25.3046 21.3828 25.6719 21.0156 25.6719 20.5625C25.6719 20.1094 25.3046 19.7422 24.8515 19.7422H9.97656C9.52432 19.7422 9.15625 19.3741 9.15625 18.9219C9.15625 18.4703 9.52304 18.1028 9.97442 18.1018ZM27.0452 6.61719L24.2327 16.4609H10.6345L8.44702 6.61719H27.0452Z" fill="#303030"/>
<path d="M9.15625 23.8437C9.15625 25.2007 10.2603 26.3047 11.6172 26.3047C12.9741 26.3047 14.0781 25.2007 14.0781 23.8437C14.0781 22.4868 12.9741 21.3828 11.6172 21.3828C10.2603 21.3828 9.15625 22.4868 9.15625 23.8437ZM11.6172 23.0234C12.0694 23.0234 12.4375 23.3915 12.4375 23.8437C12.4375 24.296 12.0694 24.6641 11.6172 24.6641C11.1649 24.6641 10.7969 24.296 10.7969 23.8437C10.7969 23.3915 11.1649 23.0234 11.6172 23.0234Z" fill="#303030"/>
<path d="M20.75 23.8437C20.75 25.2007 21.854 26.3047 23.2109 26.3047C24.5679 26.3047 25.6719 25.2007 25.6719 23.8437C25.6719 22.4868 24.5679 21.3828 23.2109 21.3828C21.854 21.3828 20.75 22.4868 20.75 23.8437ZM23.2109 23.0234C23.6632 23.0234 24.0312 23.3915 24.0312 23.8437C24.0312 24.296 23.6632 24.6641 23.2109 24.6641C22.7587 24.6641 22.3906 24.296 22.3906 23.8437C22.3906 23.3915 22.7587 23.0234 23.2109 23.0234Z" fill="#303030"/>
</g>
<defs>
<clipPath id="clip0_846_8905">
<rect width="28" height="28" fill="white" transform="translate(0.953125)"/>
</clipPath>
</defs>
</svg>
