<svg width="26" height="26" viewBox="0 0 26 26" fill="none" xmlns="http://www.w3.org/2000/svg">
<path d="M9.76959 0.7H9.76923L3.30769 0.7L3.30733 0.7C2.61608 0.700828 1.95338 0.975794 1.46458 1.46458C0.975794 1.95338 0.700828 2.61608 0.7 3.30733V3.30769L0.7 9.76923L0.7 9.76959C0.700828 10.4608 0.975794 11.1235 1.46458 11.6123C1.95338 12.1011 2.61608 12.3761 3.30733 12.3769H3.30769H9.76923H9.76959C10.4608 12.3761 11.1235 12.1011 11.6123 11.6123C12.1011 11.1235 12.3761 10.4608 12.3769 9.76959V9.76923V3.30769V3.30733C12.3761 2.61608 12.1011 1.95338 11.6123 1.46458C11.1235 0.975794 10.4608 0.700828 9.76959 0.7ZM22.6927 0.7H22.6923L16.2308 0.7L16.2304 0.7C15.5392 0.700828 14.8765 0.975794 14.3877 1.46458C13.8989 1.95337 13.6239 2.61608 13.6231 3.30733V3.30769V9.76923V9.76959C13.6239 10.4608 13.8989 11.1235 14.3877 11.6123C14.8765 12.1011 15.5392 12.3761 16.2304 12.3769H16.2308H22.6923H22.6927C23.3839 12.3761 24.0466 12.1011 24.5354 11.6123C25.0242 11.1235 25.2992 10.4608 25.3 9.76959V9.76923L25.3 3.30769L25.3 3.30733C25.2992 2.61608 25.0242 1.95337 24.5354 1.46458C24.0466 0.975795 23.3839 0.700828 22.6927 0.7ZM9.76959 13.6231H9.76923H3.30769H3.30733C2.61608 13.6239 1.95337 13.8989 1.46458 14.3877C0.975794 14.8765 0.700828 15.5392 0.7 16.2304V16.2308L0.7 22.6923L0.7 22.6927C0.700828 23.3839 0.975795 24.0466 1.46458 24.5354C1.95337 25.0242 2.61608 25.2992 3.30733 25.3H3.30769L9.76923 25.3L9.76959 25.3C10.4608 25.2992 11.1235 25.0242 11.6123 24.5354C12.1011 24.0466 12.3761 23.3839 12.3769 22.6927V22.6923V16.2308V16.2304C12.3761 15.5392 12.1011 14.8765 11.6123 14.3877C11.1235 13.8989 10.4608 13.6239 9.76959 13.6231ZM19.4619 13.6231H19.4615C18.3068 13.6231 17.178 13.9655 16.2179 14.607C15.2577 15.2486 14.5094 16.1604 14.0675 17.2273C13.6256 18.2941 13.51 19.468 13.7353 20.6006C13.9605 21.7331 14.5166 22.7734 15.3331 23.59C16.1496 24.4065 17.19 24.9625 18.3225 25.1878C19.4551 25.4131 20.629 25.2975 21.6958 24.8556C22.7627 24.4137 23.6745 23.6653 24.316 22.7052C24.9576 21.7451 25.3 20.6163 25.3 19.4615V19.4612C25.2983 17.9134 24.6827 16.4294 23.5882 15.3349C22.4937 14.2404 21.0097 13.6248 19.4619 13.6231ZM10.8538 9.76923C10.8538 10.0569 10.7396 10.3328 10.5362 10.5362C10.3328 10.7396 10.0569 10.8538 9.76923 10.8538H3.30769C3.02003 10.8538 2.74416 10.7396 2.54075 10.5362C2.33735 10.3328 2.22308 10.0569 2.22308 9.76923V3.30769C2.22308 3.02003 2.33735 2.74416 2.54075 2.54075C2.74416 2.33735 3.02003 2.22308 3.30769 2.22308H9.76923C10.0569 2.22308 10.3328 2.33735 10.5362 2.54075C10.7396 2.74416 10.8538 3.02003 10.8538 3.30769V9.76923ZM23.7769 9.76923C23.7769 10.0569 23.6627 10.3328 23.4592 10.5362C23.2558 10.7396 22.98 10.8538 22.6923 10.8538H16.2308C15.9431 10.8538 15.6672 10.7396 15.4638 10.5362C15.2604 10.3328 15.1462 10.0569 15.1462 9.76923V3.30769C15.1462 3.02004 15.2604 2.74416 15.4638 2.54075C15.6672 2.33735 15.9431 2.22308 16.2308 2.22308H22.6923C22.98 2.22308 23.2558 2.33735 23.4592 2.54075C23.6627 2.74416 23.7769 3.02004 23.7769 3.30769V9.76923ZM10.8538 22.6923C10.8538 22.98 10.7396 23.2558 10.5362 23.4592C10.3328 23.6627 10.0569 23.7769 9.76923 23.7769H3.30769C3.02004 23.7769 2.74416 23.6627 2.54075 23.4592C2.33735 23.2558 2.22308 22.98 2.22308 22.6923V16.2308C2.22308 15.9431 2.33735 15.6672 2.54075 15.4638C2.74416 15.2604 3.02004 15.1462 3.30769 15.1462H9.76923C10.0569 15.1462 10.3328 15.2604 10.5362 15.4638C10.7396 15.6672 10.8538 15.9431 10.8538 16.2308V22.6923ZM19.4612 23.7769C18.6078 23.7769 17.7736 23.5238 17.064 23.0497C16.3544 22.5755 15.8013 21.9015 15.4746 21.113C15.148 20.3244 15.0626 19.4567 15.2291 18.6196C15.3956 17.7825 15.8066 17.0136 16.4101 16.4101C17.0136 15.8066 17.7825 15.3956 18.6196 15.2291C19.4567 15.0626 20.3244 15.148 21.113 15.4746C21.9015 15.8013 22.5755 16.3544 23.0497 17.064C23.5238 17.7736 23.7769 18.6078 23.7769 19.4612C23.7757 20.6054 23.3206 21.7024 22.5115 22.5115C21.7024 23.3206 20.6054 23.7757 19.4612 23.7769Z" fill="white" stroke="white" stroke-width="0.6"/>
</svg>
