<svg width="16" height="16" viewBox="0 0 16 16" fill="none" xmlns="http://www.w3.org/2000/svg">
<g clip-path="url(#clip0_846_8860)">
<path d="M3.25938 10.6357C4.8375 12.5222 6.73721 14.0075 8.90546 15.0584C9.73099 15.4496 10.835 15.9138 12.065 15.9934C12.1413 15.9967 12.2142 16 12.2905 16C13.116 16 13.7791 15.7149 14.3195 15.1281C14.3228 15.1247 14.3294 15.1181 14.3327 15.1115C14.525 14.8794 14.7438 14.6705 14.9726 14.4484C15.1284 14.2992 15.2876 14.1434 15.4401 13.9843C16.1462 13.2482 16.1462 12.3133 15.4334 11.6005L13.4409 9.60796C13.1027 9.25653 12.6983 9.07087 12.2739 9.07087C11.8495 9.07087 11.4417 9.25653 11.0936 9.60464L9.90671 10.7915C9.7973 10.7286 9.68458 10.6722 9.57848 10.6191C9.44587 10.5528 9.3232 10.4898 9.21379 10.4202C8.13298 9.73394 7.15163 8.83879 6.21338 7.68835C5.73928 7.08827 5.421 6.58433 5.19887 6.07045C5.51052 5.78864 5.80227 5.49358 6.08408 5.20514C6.18354 5.10236 6.28632 4.99959 6.38909 4.89681C6.74715 4.53875 6.93945 4.12433 6.93945 3.70327C6.93945 3.28222 6.75047 2.8678 6.38909 2.50974L5.40111 1.52176C5.28507 1.40572 5.17567 1.293 5.06294 1.17696C4.84413 0.951513 4.61537 0.719436 4.38992 0.510568C4.04844 0.175715 3.64728 0 3.22291 0C2.80186 0 2.39738 0.175715 2.04264 0.513883L0.802687 1.75383C0.351796 2.20472 0.0965125 2.75176 0.0434665 3.385C-0.0195256 4.17737 0.126351 5.01948 0.504304 6.0373C1.08449 7.6121 1.95975 9.07418 3.25938 10.6357ZM0.852418 3.45462C0.892203 3.01368 1.06129 2.64567 1.37956 2.32739L2.61288 1.09407C2.80517 0.908413 3.01736 0.812267 3.22291 0.812267C3.42515 0.812267 3.6307 0.908413 3.81968 1.1007C4.04181 1.30626 4.25068 1.52176 4.47612 1.75052C4.58885 1.86656 4.70488 1.98259 4.82092 2.10195L5.8089 3.08993C6.01446 3.29548 6.12055 3.50435 6.12055 3.7099C6.12055 3.91546 6.01446 4.12433 5.8089 4.32988C5.70613 4.43266 5.60335 4.53875 5.50057 4.64152C5.19224 4.95317 4.90381 5.24824 4.58553 5.53005C4.5789 5.53668 4.57558 5.53999 4.56895 5.54662C4.29378 5.8218 4.33688 6.08371 4.40318 6.28264C4.4065 6.29258 4.40982 6.29921 4.41313 6.30916C4.66842 6.9225 5.02316 7.50601 5.57683 8.20224C6.57144 9.42893 7.6191 10.3804 8.77285 11.1131C8.91541 11.206 9.06792 11.2789 9.21048 11.3518C9.34309 11.4182 9.46576 11.4811 9.57517 11.5508C9.58843 11.5574 9.59838 11.564 9.61164 11.5707C9.72105 11.627 9.82714 11.6535 9.93323 11.6535C10.1985 11.6535 10.3709 11.4845 10.4272 11.4281L11.6672 10.1881C11.8595 9.99586 12.0683 9.89308 12.2739 9.89308C12.5259 9.89308 12.7314 10.0489 12.8607 10.1881L14.8599 12.184C15.2577 12.5818 15.2544 13.0128 14.8499 13.4339C14.7107 13.5831 14.5648 13.7257 14.409 13.8748C14.1769 14.1003 13.9349 14.3324 13.7161 14.5943C13.3348 15.0054 12.8806 15.1977 12.2938 15.1977C12.2374 15.1977 12.1777 15.1944 12.1214 15.191C11.0339 15.1214 10.0227 14.6971 9.26352 14.3357C7.20136 13.3378 5.39117 11.9221 3.8893 10.1252C2.65267 8.63655 1.82051 7.25072 1.27016 5.76544C0.928672 4.85371 0.799372 4.12101 0.852418 3.45462Z" fill="#303030"/>
</g>
<defs>
<clipPath id="clip0_846_8860">
<rect width="16" height="16" fill="white"/>
</clipPath>
</defs>
</svg>
