<svg width="17" height="16" viewBox="0 0 17 16" fill="none" xmlns="http://www.w3.org/2000/svg">
<g clip-path="url(#clip0_846_8897)">
<path d="M16.7576 14.862L12.2077 10.312C13.089 9.22338 13.6197 7.84004 13.6197 6.3334C13.6197 2.84144 10.7783 0.00012207 7.28638 0.00012207C3.79441 0.00012207 0.953125 2.84141 0.953125 6.33337C0.953125 9.82534 3.79444 12.6667 7.28641 12.6667C8.79305 12.6667 10.1764 12.136 11.265 11.2547L15.815 15.8046C15.945 15.9346 16.1156 16 16.2863 16C16.457 16 16.6277 15.9346 16.7577 15.8046C17.0183 15.544 17.0183 15.1226 16.7576 14.862ZM7.28641 11.3333C4.52909 11.3333 2.28646 9.09069 2.28646 6.33337C2.28646 3.57606 4.52909 1.33342 7.28641 1.33342C10.0437 1.33342 12.2864 3.57606 12.2864 6.33337C12.2864 9.09069 10.0437 11.3333 7.28641 11.3333Z" fill="#303030"/>
</g>
<defs>
<clipPath id="clip0_846_8897">
<rect width="16" height="16" fill="white" transform="translate(0.953125)"/>
</clipPath>
</defs>
</svg>
