<svg width="29" height="28" viewBox="0 0 29 28" fill="none" xmlns="http://www.w3.org/2000/svg">
<g clip-path="url(#clip0_846_8914)">
<path d="M24.8527 18.1005C23.3278 16.5757 21.5128 15.4469 19.5326 14.7635C21.6535 13.3028 23.0469 10.8581 23.0469 8.09375C23.0469 3.63087 19.416 0 14.9531 0C10.4902 0 6.85938 3.63087 6.85938 8.09375C6.85938 10.8581 8.25276 13.3028 10.3737 14.7635C8.39347 15.4469 6.5785 16.5757 5.05365 18.1005C2.4094 20.7448 0.953125 24.2605 0.953125 28H3.14062C3.14062 21.4866 8.43968 16.1875 14.9531 16.1875C21.4666 16.1875 26.7656 21.4866 26.7656 28H28.9531C28.9531 24.2605 27.4969 20.7448 24.8527 18.1005ZM14.9531 14C11.6964 14 9.04688 11.3505 9.04688 8.09375C9.04688 4.837 11.6964 2.1875 14.9531 2.1875C18.2098 2.1875 20.8594 4.837 20.8594 8.09375C20.8594 11.3505 18.2098 14 14.9531 14Z" fill="#303030"/>
</g>
<defs>
<clipPath id="clip0_846_8914">
<rect width="28" height="28" fill="white" transform="translate(0.953125)"/>
</clipPath>
</defs>
</svg>
