<svg width="9" height="17" viewBox="0 0 9 17" fill="none" xmlns="http://www.w3.org/2000/svg">
<path d="M8.4588 7.97666C8.63065 8.15136 8.71621 8.38014 8.71621 8.60741C8.71621 8.83468 8.63065 9.06346 8.4588 9.23816L1.79222 16.015C1.7922 16.015 1.79218 16.015 1.79217 16.015C1.44702 16.366 0.886386 16.3656 0.541291 16.0151C0.197931 15.6662 0.198 15.1024 0.541243 14.7535L6.58739 8.60741L0.541291 2.46136C0.541275 2.46134 0.541259 2.46132 0.541243 2.46131C0.19787 2.11243 0.198259 1.54869 0.541194 1.19986C0.886276 0.848849 1.44698 0.84892 1.79217 1.19981L8.4588 7.97666Z" fill="#65733E" stroke="#65733E" stroke-width="0.432419"/>
</svg>
