<svg width="24" height="21" viewBox="0 0 24 21" fill="none" xmlns="http://www.w3.org/2000/svg">
<path d="M1.38508 2.74718C2.24439 1.61816 3.45827 0.810766 4.83169 0.454685C6.20511 0.0986046 7.65837 0.214513 8.95798 0.78379C10.1212 1.28576 11.1586 2.13207 12 3.25519C12.8414 2.12933 13.8788 1.28301 15.042 0.78379C16.3416 0.214513 17.7949 0.0986046 19.1683 0.454685C20.5417 0.810766 21.7556 1.61816 22.6149 2.74718C23.5211 3.93455 24 5.41848 24 7.03807C24 9.36887 22.61 11.9259 19.8689 14.6412C17.6353 16.8528 14.9959 18.6641 13.6218 19.5466C13.1376 19.8565 12.5748 20.0212 12 20.0212C11.4252 20.0212 10.8624 19.8565 10.3782 19.5466C9.00522 18.6641 6.36467 16.8528 4.13107 14.6412C1.39002 11.927 0 9.36887 0 7.03807C0 5.41848 0.478901 3.93455 1.38508 2.74718Z" fill="#65733E"/>
</svg>
