<svg width="25" height="25" viewBox="0 0 25 25" fill="none" xmlns="http://www.w3.org/2000/svg">
<g clip-path="url(#clip0_500_5460)">
<path fill-rule="evenodd" clip-rule="evenodd" d="M22.2848 2.0902V23.2994C22.2848 23.6097 22.1129 23.8944 21.8383 24.0394C21.5637 24.1846 21.2322 24.1656 20.9754 23.9903L18.1903 22.0893L15.557 23.9792C15.2411 24.2069 14.8102 24.1857 14.5177 23.929L12.5174 22.1798L10.517 23.929C10.2246 24.1857 9.79368 24.2069 9.4778 23.9792L6.84449 22.0893L4.05941 23.9903C3.80267 24.1656 3.47116 24.1846 3.19651 24.0394C2.92191 23.8943 2.75 23.6097 2.75 23.2994V2.0902C2.75004 1.01188 3.62406 0.136719 4.70352 0.136719H20.3313C21.4108 0.136719 22.2848 1.01188 22.2848 2.0902ZM20.6104 2.0902C20.6104 1.93615 20.4854 1.81113 20.3313 1.81113H4.70352C4.54948 1.81113 4.42445 1.93615 4.42445 2.0902V21.7143L6.38463 20.3759C6.67486 20.1772 7.05886 20.1817 7.34462 20.387L9.91428 22.2322L11.966 20.4373C12.2819 20.1604 12.753 20.1604 13.0689 20.4373L15.1206 22.2322L17.6902 20.387C17.976 20.1817 18.36 20.1772 18.6502 20.3759L20.6104 21.7143V2.0902Z" fill="#65733E"/>
<path fill-rule="evenodd" clip-rule="evenodd" d="M8.05205 6.27622C7.58991 6.27622 7.21484 5.90115 7.21484 5.43901C7.21484 4.97687 7.58991 4.60181 8.05205 4.60181H16.9822C17.4444 4.60181 17.8194 4.97687 17.8194 5.43901C17.8194 5.90115 17.4444 6.27622 16.9822 6.27622H8.05205Z" fill="#65733E"/>
<path fill-rule="evenodd" clip-rule="evenodd" d="M8.05205 10.7413C7.58991 10.7413 7.21484 10.3662 7.21484 9.9041C7.21484 9.44196 7.58991 9.06689 8.05205 9.06689H16.9822C17.4444 9.06689 17.8194 9.44196 17.8194 9.9041C17.8194 10.3662 17.4444 10.7413 16.9822 10.7413H8.05205Z" fill="#65733E"/>
<path fill-rule="evenodd" clip-rule="evenodd" d="M8.05205 15.2064C7.58991 15.2064 7.21484 14.8313 7.21484 14.3692C7.21484 13.9071 7.58991 13.532 8.05205 13.532H12.5171C12.9793 13.532 13.3543 13.9071 13.3543 14.3692C13.3543 14.8313 12.9793 15.2064 12.5171 15.2064H8.05205Z" fill="#65733E"/>
</g>
<defs>
<clipPath id="clip0_500_5460">
<rect width="24" height="24" fill="white" transform="translate(0.5 0.136719)"/>
</clipPath>
</defs>
</svg>
