<svg width="28" height="28" viewBox="0 0 28 28" fill="none" xmlns="http://www.w3.org/2000/svg">
<path d="M17.7867 12.3154C17.7867 11.8484 17.408 11.4697 16.941 11.4697H7.63864C7.17164 11.4697 6.79297 11.8484 6.79297 12.3154C6.79297 12.7824 7.17164 13.1611 7.63864 13.1611H16.941C17.408 13.1611 17.7867 12.7824 17.7867 12.3154Z" fill="#65733E"/>
<path d="M7.63864 15.7402C7.17164 15.7402 6.79297 16.1189 6.79297 16.5859C6.79297 17.0529 7.17164 17.4316 7.63864 17.4316H12.5708C13.0378 17.4316 13.4165 17.0529 13.4165 16.5859C13.4165 16.1189 13.0378 15.7402 12.5708 15.7402H7.63864Z" fill="#65733E"/>
<path d="M23.3594 12.3626C22.8924 12.3626 22.5137 12.7413 22.5137 13.2083V20.0479C22.5137 21.3277 21.4726 22.3688 20.1928 22.3688H14.5362C14.3529 22.3688 14.1744 22.428 14.0278 22.5389L9.1436 26.2119C9.01957 26.3049 8.90306 26.2664 8.8448 26.2344C8.7856 26.2044 8.68788 26.1301 8.69164 25.9789L8.7856 23.2445C8.79312 23.0152 8.70761 22.7926 8.54881 22.6281C8.39001 22.4627 8.17014 22.3697 7.94087 22.3697H4.01225C2.73246 22.3697 1.69135 21.3295 1.69135 20.0488V8.86714C1.69135 7.58266 2.73246 6.53778 4.01225 6.53778H14.4328C14.8998 6.53778 15.2785 6.15911 15.2785 5.69211C15.2785 5.22511 14.8998 4.84644 14.4328 4.84644H4.01225C1.80034 4.84644 0 6.65054 0 8.86808V20.0488C0 22.2607 1.80034 24.062 4.01225 24.062H7.06513L7.00123 25.9244C6.97868 26.6892 7.38554 27.3846 8.0649 27.7369C8.35525 27.8882 8.66815 27.9624 8.97823 27.9624C9.39449 27.9624 9.80699 27.8281 10.1584 27.5659L14.8181 24.062H20.1918C22.4038 24.062 24.2041 22.2617 24.2041 20.0488V13.2092C24.205 12.7413 23.8264 12.3626 23.3594 12.3626Z" fill="#65733E"/>
<path d="M27.9277 4.30707C27.7745 3.83726 27.3977 3.48583 26.9195 3.36744L24.7583 2.82903L23.5781 0.940357C23.0547 0.100322 21.6885 0.102201 21.1661 0.940357L19.9859 2.82903L17.8247 3.36744C17.3465 3.48583 16.9687 3.83726 16.8165 4.30707C16.6643 4.77689 16.762 5.28336 17.0796 5.66203L18.5116 7.36653L18.3556 9.58783C18.3209 10.0802 18.5388 10.5472 18.9382 10.8375C19.1863 11.018 19.4775 11.111 19.7726 11.111C19.9521 11.111 20.1334 11.0762 20.3072 11.0057L22.3726 10.1713L24.4369 11.0057C24.8946 11.1918 25.4057 11.1279 25.806 10.8385C26.2053 10.5481 26.4233 10.0811 26.3895 9.58783L26.2335 7.36653L27.6655 5.66109C27.9822 5.28336 28.0809 4.77689 27.9277 4.30707ZM24.7179 6.54059C24.577 6.70879 24.5065 6.9249 24.5225 7.14478L24.6728 9.27775L22.6902 8.47624C22.5887 8.4349 22.4806 8.41423 22.3735 8.41423C22.2664 8.41423 22.1583 8.4349 22.0568 8.47624L20.0752 9.27775L20.2246 7.14478C20.2396 6.92584 20.1691 6.70879 20.0291 6.54059L18.6544 4.90374L20.7291 4.386C20.9415 4.33244 21.1257 4.19996 21.2412 4.01391L22.3744 2.20135L23.5076 4.01391C23.6242 4.19996 23.8074 4.33338 24.0198 4.386L26.0945 4.90374L24.7179 6.54059Z" fill="#65733E"/>
</svg>
