<svg width="24" height="30" viewBox="0 0 24 30" fill="none" xmlns="http://www.w3.org/2000/svg">
<path d="M5.15835 20.6501C7.36497 20.6501 9.1847 22.2253 9.58593 24.3018H17.3375C19.6301 24.3018 21.4925 22.4258 21.4925 20.1489C21.4925 17.8577 19.6301 15.996 17.3375 15.996H5.87477C2.63655 15.996 0 13.3611 0 10.1246C0 6.87389 2.63654 4.25333 5.87477 4.25333H15.0448C15.4604 2.17677 17.2801 0.601562 19.4867 0.601562C21.9798 0.601562 24 2.62078 24 5.11251C24 7.58991 21.9798 9.62346 19.4867 9.62346C17.2944 9.62346 15.4604 8.04809 15.0591 5.9717H5.87477C3.58209 5.9717 1.71968 7.83342 1.71968 10.1246C1.71968 12.4015 3.58208 14.2776 5.87477 14.2776H17.3375C20.5757 14.2776 23.2122 16.8981 23.2122 20.1489C23.2122 23.3853 20.5757 26.0202 17.3375 26.0202H9.58593C9.18469 28.0966 7.35062 29.672 5.15835 29.672C2.66522 29.672 0.645052 27.6384 0.645052 25.161C0.645052 22.6693 2.66523 20.6501 5.15835 20.6501ZM5.12967 26.0202C5.60261 26.0202 5.9895 25.6335 5.9895 25.161C5.9895 24.6742 5.61696 24.3018 5.14401 24.3018H5.12967C4.65673 24.3018 4.26984 24.6742 4.26984 25.161C4.26983 25.6335 4.65672 26.0202 5.12967 26.0202Z" fill="#65733E"/>
</svg>
