<svg width="64" height="33" viewBox="0 0 64 33" fill="none" xmlns="http://www.w3.org/2000/svg">
<path d="M55.0708 32.5001C53.9862 32.5008 52.9258 32.2044 52.0236 31.6484C51.1214 31.0924 50.4181 30.3017 50.0025 29.3764C49.5869 28.4511 49.4777 27.4327 49.6888 26.4501C49.9 25.4675 50.4218 24.5648 51.1884 23.8562C51.9551 23.1476 52.932 22.6649 53.9957 22.4692C55.0593 22.2735 56.1619 22.3735 57.164 22.7567C58.1661 23.1399 59.0226 23.789 59.6252 24.6219C60.2279 25.4548 60.5495 26.434 60.5495 27.4358C60.5488 28.7781 59.9715 30.0653 58.9443 31.0147C57.9171 31.9642 56.524 32.4984 55.0708 32.5001ZM55.0708 24.2189C54.3818 24.2182 53.708 24.4063 53.1348 24.7593C52.5615 25.1123 52.1145 25.6145 51.8503 26.2022C51.5861 26.79 51.5165 27.4369 51.6505 28.0611C51.7844 28.6854 52.1158 29.2589 52.6027 29.7092C53.0896 30.1594 53.7102 30.4662 54.3858 30.5906C55.0615 30.715 55.762 30.6515 56.3986 30.4082C57.0352 30.1648 57.5794 29.7525 57.9623 29.2234C58.3451 28.6943 58.5495 28.0722 58.5495 27.4358C58.5492 26.5834 58.1827 25.7659 57.5305 25.1628C56.8783 24.5597 55.9936 24.2202 55.0708 24.2189Z" fill="#303030"/>
<path d="M26.1776 32.5C25.0929 32.501 24.0324 32.2048 23.13 31.649C22.2277 31.0931 21.5241 30.3025 21.1083 29.3772C20.6925 28.452 20.5832 27.4335 20.7942 26.4509C21.0051 25.4682 21.5269 24.5653 22.2934 23.8566C23.06 23.1479 24.0369 22.6651 25.1006 22.4693C26.1643 22.2734 27.267 22.3734 28.2692 22.7566C29.2713 23.1398 30.1279 23.7889 30.7306 24.6218C31.3333 25.4547 31.655 26.434 31.655 27.4358C31.654 28.7778 31.0767 30.0646 30.0499 31.014C29.023 31.9633 27.6304 32.4978 26.1776 32.5ZM26.1776 24.2189C25.4885 24.218 24.8146 24.4058 24.2412 24.7587C23.6678 25.1116 23.2206 25.6136 22.9561 26.2014C22.6917 26.7891 22.622 27.436 22.7558 28.0604C22.8895 28.6847 23.2208 29.2584 23.7077 29.7087C24.1945 30.1591 24.8151 30.466 25.4908 30.5905C26.1666 30.715 26.8671 30.6516 27.5038 30.4083C28.1405 30.165 28.6847 29.7526 29.0677 29.2235C29.4506 28.6944 29.655 28.0723 29.655 27.4358C29.6543 26.5837 29.2878 25.7666 28.636 25.1636C27.9842 24.5606 27.1001 24.2209 26.1776 24.2189Z" fill="#303030"/>
<path d="M62.2833 28.3595H59.5485C59.2833 28.3595 59.029 28.2621 58.8414 28.0889C58.6539 27.9157 58.5485 27.6807 58.5485 27.4358C58.5485 27.1908 58.6539 26.9559 58.8414 26.7826C59.029 26.6094 59.2833 26.5121 59.5485 26.5121H62.0006V21.6141C61.9999 20.9519 61.8164 20.3008 61.4672 19.7224L56.0538 10.7578C56.0076 10.6813 55.9401 10.6176 55.8583 10.5732C55.7765 10.5288 55.6833 10.5054 55.5885 10.5053H48.211V26.5158H50.5924C50.8576 26.5158 51.1119 26.6131 51.2995 26.7863C51.487 26.9596 51.5924 27.1945 51.5924 27.4395C51.5924 27.6844 51.487 27.9194 51.2995 28.0926C51.1119 28.2658 50.8576 28.3632 50.5924 28.3632H47.211C46.9457 28.3632 46.6914 28.2658 46.5038 28.0926C46.3163 27.9194 46.2109 27.6844 46.2109 27.4395V9.58164C46.2109 9.33666 46.3163 9.10172 46.5038 8.9285C46.6914 8.75527 46.9457 8.65796 47.211 8.65796H55.5885C56.0396 8.65776 56.4826 8.76884 56.8718 8.97972C57.2609 9.1906 57.582 9.49364 57.8018 9.85751L63.2139 18.8234C63.7285 19.6768 63.9988 20.6373 63.9993 21.6141V26.7744C63.9986 27.1946 63.8176 27.5974 63.4959 27.8945C63.1742 28.1916 62.7382 28.3588 62.2833 28.3595Z" fill="#303030"/>
<path d="M21.6995 28.3595H12.1113C11.8461 28.3595 11.5918 28.2622 11.4042 28.089C11.2167 27.9158 11.1113 27.6808 11.1113 27.4359V20.3321C11.1113 20.0872 11.2167 19.8522 11.4042 19.679C11.5918 19.5058 11.8461 19.4084 12.1113 19.4084C12.3766 19.4084 12.6309 19.5058 12.8185 19.679C13.006 19.8522 13.1114 20.0872 13.1114 20.3321V26.5122H21.6995C21.9648 26.5122 22.2191 26.6095 22.4067 26.7827C22.5942 26.9559 22.6996 27.1909 22.6996 27.4359C22.6996 27.6808 22.5942 27.9158 22.4067 28.089C22.2191 28.2622 21.9648 28.3595 21.6995 28.3595Z" fill="#303030"/>
<path d="M12.1113 17.0549C11.8461 17.0549 11.5918 16.9576 11.4042 16.7844C11.2167 16.6112 11.1113 16.3762 11.1113 16.1313V9.92905C11.1113 9.68408 11.2167 9.44913 11.4042 9.27591C11.5918 9.10269 11.8461 9.00537 12.1113 9.00537C12.3766 9.00537 12.6309 9.10269 12.8185 9.27591C13.006 9.44913 13.1114 9.68408 13.1114 9.92905V16.135C13.1103 16.3793 13.0045 16.6133 12.8171 16.7857C12.6296 16.9581 12.3759 17.0549 12.1113 17.0549Z" fill="#303030"/>
<path d="M47.2121 28.3594H30.6557C30.3905 28.3594 30.1361 28.2621 29.9486 28.0889C29.7611 27.9157 29.6557 27.6807 29.6557 27.4358C29.6557 27.1908 29.7611 26.9558 29.9486 26.7826C30.1361 26.6094 30.3905 26.5121 30.6557 26.5121H46.212V2.34736H13.1114V6.1517C13.1114 6.39667 13.006 6.63161 12.8185 6.80484C12.6309 6.97806 12.3766 7.07538 12.1113 7.07538C11.8461 7.07538 11.5918 6.97806 11.4042 6.80484C11.2167 6.63161 11.1113 6.39667 11.1113 6.1517V2.1774C11.112 1.73252 11.3038 1.30605 11.6445 0.991585C11.9852 0.677117 12.447 0.500326 12.9287 0.5H46.3961C46.8775 0.500652 47.339 0.677587 47.6794 0.99202C48.0198 1.30645 48.2114 1.73273 48.2121 2.1774V27.4358C48.2121 27.6807 48.1067 27.9157 47.9192 28.0889C47.7316 28.2621 47.4773 28.3594 47.2121 28.3594Z" fill="#303030"/>
<path d="M16.0634 21.2558H3.37111C3.10589 21.2558 2.85153 21.1585 2.66399 20.9853C2.47645 20.812 2.37109 20.5771 2.37109 20.3321C2.37109 20.0872 2.47645 19.8522 2.66399 19.679C2.85153 19.5058 3.10589 19.4084 3.37111 19.4084H16.0634C16.3286 19.4084 16.583 19.5058 16.7705 19.679C16.958 19.8522 17.0634 20.0872 17.0634 20.3321C17.0634 20.5771 16.958 20.812 16.7705 20.9853C16.583 21.1585 16.3286 21.2558 16.0634 21.2558Z" fill="#303030"/>
<path d="M26.1778 17.0549H8.46682C8.2016 17.0549 7.94724 16.9576 7.7597 16.7843C7.57216 16.6111 7.4668 16.3762 7.4668 16.1312C7.4668 15.8862 7.57216 15.6513 7.7597 15.4781C7.94724 15.3048 8.2016 15.2075 8.46682 15.2075H26.1778C26.4431 15.2075 26.6974 15.3048 26.885 15.4781C27.0725 15.6513 27.1779 15.8862 27.1779 16.1312C27.1779 16.3762 27.0725 16.6111 26.885 16.7843C26.6974 16.9576 26.4431 17.0549 26.1778 17.0549Z" fill="#303030"/>
<path d="M7.91616 12.1777H1.00002C0.734798 12.1777 0.480439 12.0804 0.292899 11.9071C0.105359 11.7339 0 11.499 0 11.254C0 11.009 0.105359 10.7741 0.292899 10.6009C0.480439 10.4276 0.734798 10.3303 1.00002 10.3303H7.91616C8.18138 10.3303 8.43574 10.4276 8.62328 10.6009C8.81082 10.7741 8.91618 11.009 8.91618 11.254C8.91618 11.499 8.81082 11.7339 8.62328 11.9071C8.43574 12.0804 8.18138 12.1777 7.91616 12.1777Z" fill="#303030"/>
<path d="M19.0051 7.07539H6.7969C6.53167 7.07539 6.27731 6.97807 6.08977 6.80485C5.90223 6.63163 5.79688 6.39668 5.79688 6.15171C5.79688 5.90673 5.90223 5.67179 6.08977 5.49857C6.27731 5.32534 6.53167 5.22803 6.7969 5.22803H19.0051C19.2704 5.22803 19.5247 5.32534 19.7123 5.49857C19.8998 5.67179 20.0052 5.90673 20.0052 6.15171C20.0052 6.39668 19.8998 6.63163 19.7123 6.80485C19.5247 6.97807 19.2704 7.07539 19.0051 7.07539Z" fill="#303030"/>
</svg>
