<svg width="40" height="41" viewBox="0 0 40 41" fill="none" xmlns="http://www.w3.org/2000/svg">
<path d="M20 1.66992L5 7.12492V20.3199C5.0036 22.8952 5.61456 25.4334 6.78327 27.7283C7.95199 30.0231 9.64549 32.01 11.7262 33.5274L20 39.5449L28.2738 33.5274C30.3545 32.01 32.048 30.0231 33.2167 27.7283C34.3854 25.4334 34.9964 22.8952 35 20.3199V7.12492L20 1.66992ZM32.5 20.3199C32.4965 22.501 31.979 24.6505 30.9893 26.5941C29.9996 28.5376 28.5656 30.2205 26.8038 31.5062L20 36.4549L13.1962 31.5062C11.4344 30.2205 10.0004 28.5376 9.01073 26.5941C8.02103 24.6505 7.50345 22.501 7.5 20.3199V8.87492L20 4.32992L32.5 8.87492V20.3199Z" fill="#303030"/>
<path d="M14.6347 17.4287L12.8672 19.1962L18.4384 24.7675L27.1347 16.0712L25.3672 14.3037L18.4384 21.2325L14.6347 17.4287Z" fill="#303030"/>
</svg>
